<?xml version="1.0" encoding="UTF-8" standalone="no"?>
<!DOCTYPE svg PUBLIC "-//W3C//DTD SVG 1.1//EN" "http://www.w3.org/Graphics/SVG/1.1/DTD/svg11.dtd">
<svg width="100%" height="100%" viewBox="0 0 512 512" version="1.1" xmlns="http://www.w3.org/2000/svg" xmlns:xlink="http://www.w3.org/1999/xlink" xml:space="preserve" xmlns:serif="http://www.serif.com/" style="fill-rule:evenodd;clip-rule:evenodd;stroke-linejoin:round;stroke-miterlimit:2;">
    <path d="M256,8C119.033,8 8,119.033 8,256C8,392.967 119.033,504 256,504C392.967,504 504,392.967 504,256C504,119.033 392.967,8 256,8ZM256,472C137.336,472 40,375.945 40,256C40,137.337 136.055,40 256,40C374.664,40 472,136.055 472,256C472,374.663 375.945,472 256,472ZM397.63,197.039L217.15,376.071C212.445,380.738 204.847,380.708 200.18,376.003L114.302,289.431C109.635,284.726 109.665,277.128 114.37,272.461L122.89,264.01C127.595,259.343 135.193,259.373 139.86,264.078L208.836,333.611L372.277,171.481C376.982,166.814 384.58,166.844 389.247,171.549L397.698,180.069C402.366,184.774 402.335,192.372 397.63,197.039Z" style="fill:rgb(3,189,91);fill-rule:nonzero;"/>
</svg>
